<mxfile host="app.diagrams.net" modified="2021-10-31T09:59:48.895Z" agent="5.0 (Windows NT 10.0; Win64; x64) AppleWebKit/537.36 (KHTML, like Gecko) Chrome/95.0.4638.54 Safari/537.36" etag="uiJYTpYSvlCJxEx1LtqT" version="15.6.2" type="github">
  <diagram name="Page-1" id="e7e014a7-5840-1c2e-5031-d8a46d1fe8dd">
    <mxGraphModel dx="1673" dy="934" grid="1" gridSize="10" guides="1" tooltips="1" connect="1" arrows="1" fold="1" page="1" pageScale="1" pageWidth="1169" pageHeight="826" background="none" math="0" shadow="0">
      <root>
        <mxCell id="0" />
        <mxCell id="1" parent="0" />
        <mxCell id="20" value="" style="endArrow=open;strokeColor=#FF0000;endFill=1;rounded=0" parent="1" source="10" edge="1">
          <mxGeometry relative="1" as="geometry">
            <mxPoint x="464.5" y="478" as="targetPoint" />
          </mxGeometry>
        </mxCell>
        <mxCell id="Uxc4Kmj1n3rFb8_PSOaM-61" value="Pool" style="swimlane;childLayout=stackLayout;resizeParent=1;resizeParentMax=0;horizontal=1;startSize=20;horizontalStack=0;" vertex="1" parent="1">
          <mxGeometry x="30" y="200" width="1100" height="520" as="geometry" />
        </mxCell>
        <mxCell id="Uxc4Kmj1n3rFb8_PSOaM-62" value="Host" style="swimlane;startSize=20;horizontal=0;" vertex="1" parent="Uxc4Kmj1n3rFb8_PSOaM-61">
          <mxGeometry y="20" width="1100" height="180" as="geometry" />
        </mxCell>
        <mxCell id="5" value="" style="ellipse;shape=startState;fillColor=#000000;strokeColor=#ff0000;rotation=-90;" parent="Uxc4Kmj1n3rFb8_PSOaM-62" vertex="1">
          <mxGeometry x="30" y="45" width="30" height="30" as="geometry" />
        </mxCell>
        <mxCell id="Uxc4Kmj1n3rFb8_PSOaM-41" value="Create Host profile with verification" style="rounded=0;whiteSpace=wrap;html=1;rotation=0;" vertex="1" parent="Uxc4Kmj1n3rFb8_PSOaM-62">
          <mxGeometry x="90" y="35" width="110" height="50" as="geometry" />
        </mxCell>
        <mxCell id="Uxc4Kmj1n3rFb8_PSOaM-65" value="&#xa;&#xa;&lt;span style=&quot;color: rgb(0, 0, 0); font-family: helvetica; font-size: 12px; font-style: normal; font-weight: 400; letter-spacing: normal; text-align: center; text-indent: 0px; text-transform: none; word-spacing: 0px; background-color: rgb(248, 249, 250); display: inline; float: none;&quot;&gt;Register listing on website&lt;/span&gt;&#xa;&#xa;" style="rounded=0;whiteSpace=wrap;html=1;rotation=0;" vertex="1" parent="Uxc4Kmj1n3rFb8_PSOaM-62">
          <mxGeometry x="250" y="35" width="110" height="50" as="geometry" />
        </mxCell>
        <mxCell id="Uxc4Kmj1n3rFb8_PSOaM-75" value="Receive booking request" style="rounded=0;whiteSpace=wrap;html=1;rotation=0;" vertex="1" parent="Uxc4Kmj1n3rFb8_PSOaM-62">
          <mxGeometry x="630" y="35" width="110" height="50" as="geometry" />
        </mxCell>
        <mxCell id="Uxc4Kmj1n3rFb8_PSOaM-76" value="Approve guest?" style="rhombus;whiteSpace=wrap;html=1;" vertex="1" parent="Uxc4Kmj1n3rFb8_PSOaM-62">
          <mxGeometry x="810" y="27.5" width="120" height="65" as="geometry" />
        </mxCell>
        <mxCell id="Uxc4Kmj1n3rFb8_PSOaM-63" value="System" style="swimlane;startSize=20;horizontal=0;" vertex="1" parent="Uxc4Kmj1n3rFb8_PSOaM-61">
          <mxGeometry y="200" width="1100" height="190" as="geometry" />
        </mxCell>
        <mxCell id="Uxc4Kmj1n3rFb8_PSOaM-66" value="Receive room listing" style="rounded=0;whiteSpace=wrap;html=1;rotation=0;" vertex="1" parent="Uxc4Kmj1n3rFb8_PSOaM-63">
          <mxGeometry x="230" y="60" width="110" height="50" as="geometry" />
        </mxCell>
        <mxCell id="Uxc4Kmj1n3rFb8_PSOaM-70" value="Display room listings based on location" style="rounded=0;whiteSpace=wrap;html=1;rotation=0;" vertex="1" parent="Uxc4Kmj1n3rFb8_PSOaM-63">
          <mxGeometry x="480" y="35" width="110" height="50" as="geometry" />
        </mxCell>
        <mxCell id="Uxc4Kmj1n3rFb8_PSOaM-71" value="Listing Database" style="shape=datastore;whiteSpace=wrap;html=1;" vertex="1" parent="Uxc4Kmj1n3rFb8_PSOaM-63">
          <mxGeometry x="375" y="110" width="60" height="60" as="geometry" />
        </mxCell>
        <mxCell id="Uxc4Kmj1n3rFb8_PSOaM-74" value="Process booking request" style="rounded=0;whiteSpace=wrap;html=1;rotation=0;" vertex="1" parent="Uxc4Kmj1n3rFb8_PSOaM-63">
          <mxGeometry x="630" y="35" width="110" height="50" as="geometry" />
        </mxCell>
        <mxCell id="Uxc4Kmj1n3rFb8_PSOaM-77" value="Receive room listing" style="rounded=0;whiteSpace=wrap;html=1;rotation=0;" vertex="1" parent="Uxc4Kmj1n3rFb8_PSOaM-63">
          <mxGeometry x="90" y="60" width="110" height="50" as="geometry" />
        </mxCell>
        <mxCell id="Uxc4Kmj1n3rFb8_PSOaM-64" value="Guest" style="swimlane;startSize=20;horizontal=0;" vertex="1" parent="Uxc4Kmj1n3rFb8_PSOaM-61">
          <mxGeometry y="390" width="1100" height="130" as="geometry" />
        </mxCell>
        <mxCell id="Uxc4Kmj1n3rFb8_PSOaM-67" value="Register account on Airbnb" style="rounded=0;whiteSpace=wrap;html=1;rotation=0;" vertex="1" parent="Uxc4Kmj1n3rFb8_PSOaM-64">
          <mxGeometry x="90" y="40" width="110" height="50" as="geometry" />
        </mxCell>
        <mxCell id="Uxc4Kmj1n3rFb8_PSOaM-68" value="Search for listings based on location and date" style="rounded=0;whiteSpace=wrap;html=1;rotation=0;" vertex="1" parent="Uxc4Kmj1n3rFb8_PSOaM-64">
          <mxGeometry x="350" y="40" width="110" height="50" as="geometry" />
        </mxCell>
        <mxCell id="Uxc4Kmj1n3rFb8_PSOaM-72" value="View Listing information" style="rounded=0;whiteSpace=wrap;html=1;rotation=0;" vertex="1" parent="Uxc4Kmj1n3rFb8_PSOaM-64">
          <mxGeometry x="480" y="40" width="110" height="50" as="geometry" />
        </mxCell>
        <mxCell id="Uxc4Kmj1n3rFb8_PSOaM-73" value="Create booking request for listing" style="rounded=0;whiteSpace=wrap;html=1;rotation=0;" vertex="1" parent="Uxc4Kmj1n3rFb8_PSOaM-64">
          <mxGeometry x="630" y="40" width="110" height="50" as="geometry" />
        </mxCell>
      </root>
    </mxGraphModel>
  </diagram>
</mxfile>
